<svg width="70" height="70" viewBox="0 0 70 70" fill="none" xmlns="http://www.w3.org/2000/svg">
<path d="M69.9432 9.89619C69.8055 9.47495 69.4416 9.16706 69.0017 9.1028L64.8227 8.49494L62.9525 4.7079C62.5606 3.90987 61.2527 3.90987 60.8607 4.7079L58.9905 8.49494L54.8114 9.10293C54.3715 9.16706 54.0076 9.47399 53.8687 9.89632C53.7322 10.3187 53.8453 10.783 54.1638 11.0922L57.1891 14.0405L56.4751 18.2032C56.4005 18.6407 56.5801 19.0829 56.9383 19.3443C57.3012 19.608 57.7748 19.6406 58.168 19.4329L61.9061 17.467L65.6441 19.4329C65.8145 19.5227 66.0024 19.567 66.1879 19.567C66.4293 19.567 66.6709 19.4924 66.874 19.3441C67.2333 19.0829 67.4129 18.6406 67.3372 18.2031L66.6232 14.0403L69.6484 11.0921C69.9653 10.7817 70.0798 10.3185 69.9432 9.89619ZM64.5556 12.7989C64.2815 13.0661 64.1554 13.4534 64.2207 13.8314L64.6384 16.2686L62.4498 15.1182C62.2795 15.0284 62.0928 14.9841 61.9061 14.9841C61.7194 14.9841 61.5339 15.0284 61.3623 15.1182L59.1736 16.2686L59.5912 13.8314C59.6566 13.4534 59.5305 13.0673 59.2564 12.7989L57.4842 11.0723L59.932 10.7164C60.3123 10.6616 60.6402 10.4224 60.8105 10.0782L61.9048 7.86151L62.9991 10.0782C63.1695 10.4223 63.4974 10.6616 63.8777 10.7164L66.3254 11.0723L64.5556 12.7989Z" fill="#2196F3"/>
<path d="M57.1669 44.8921H54.8335V47.2255H57.1669V44.8921Z" fill="#2196F3"/>
<path d="M57.1669 49.5591H54.8335V51.8925H57.1669V49.5591Z" fill="#2196F3"/>
<path d="M59.5004 47.2256H57.167V49.559H59.5004V47.2256Z" fill="#2196F3"/>
<path d="M54.8337 47.2256H52.5002V49.559H54.8337V47.2256Z" fill="#2196F3"/>
<path d="M49.0003 57.7261H46.6669V60.0595H49.0003V57.7261Z" fill="#2196F3"/>
<path d="M49.0003 62.3926H46.6669V64.726H49.0003V62.3926Z" fill="#2196F3"/>
<path d="M51.3337 60.0591H49.0002V62.3925H51.3337V60.0591Z" fill="#2196F3"/>
<path d="M46.6668 60.0591H44.3334V62.3925H46.6668V60.0591Z" fill="#2196F3"/>
<path d="M35 53.0591H32.6666V55.3925H35V53.0591Z" fill="#2196F3"/>
<path d="M35 57.7261H32.6666V60.0595H35V57.7261Z" fill="#2196F3"/>
<path d="M37.3334 55.3926H35V57.726H37.3334V55.3926Z" fill="#2196F3"/>
<path d="M32.6665 55.3926H30.3331V57.726H32.6665V55.3926Z" fill="#2196F3"/>
<path d="M12.8331 13.3916H10.4996V15.725H12.8331V13.3916Z" fill="#2196F3"/>
<path d="M12.8331 18.0586H10.4996V20.392H12.8331V18.0586Z" fill="#2196F3"/>
<path d="M15.1663 15.7251H12.8329V18.0585H15.1663V15.7251Z" fill="#2196F3"/>
<path d="M10.4996 15.7251H8.16614V18.0585H10.4996V15.7251Z" fill="#2196F3"/>
<path d="M54.0635 30.974C53.4347 30.1258 52.5119 29.5798 51.4642 29.4327C50.4118 29.2834 49.3734 29.5599 48.5334 30.2028L45.7952 32.3015L45.794 32.3028L41.6428 35.4027L38.6724 34.2196C43.9691 31.8431 47.6711 26.5452 47.6711 20.3944C47.6711 12.0316 40.8401 5.22754 32.4436 5.22754C24.047 5.22754 17.2161 12.0316 17.2161 20.3944C17.2161 23.4255 18.1226 26.2441 19.6662 28.616L13.6204 28.5635C13.6168 28.5635 13.6134 28.5635 13.6099 28.5635C13.5911 28.5635 13.5761 28.5728 13.5586 28.574C13.4431 28.5786 13.3298 28.602 13.2191 28.6417C13.1911 28.6522 13.162 28.6581 13.1352 28.6708C13.1212 28.6767 13.1071 28.6778 13.0932 28.6847L6.02075 32.1766C6.01952 32.1766 6.01843 32.1766 6.01843 32.1777L1.8766 34.1694C1.83107 34.1893 1.78445 34.2161 1.73892 34.2464C0.0880191 35.3454 -0.474314 37.5038 0.429958 39.2677C0.911763 40.2058 1.73195 40.8965 2.73999 41.2126C3.12856 41.3339 3.52518 41.3935 3.91949 41.3935C4.55305 41.3935 5.18074 41.2383 5.75578 40.9315L8.79154 39.3168L13.7441 36.7595L16.7122 36.742L4.80844 48.5886C4.80735 48.5898 4.80612 48.5898 4.80489 48.5909L1.87647 51.5076C1.18466 52.1959 0.8043 53.1094 0.8043 54.0836C0.8043 55.0567 1.18466 55.9724 1.87647 56.6621C2.587 57.369 3.52149 57.7237 4.45598 57.7237C5.3917 57.7237 6.32495 57.369 7.03782 56.6621L9.91251 53.799L13.7206 50.9557L15.6912 52.9181L11.8375 56.7553C11.8364 56.7565 11.8352 56.7565 11.834 56.7576L8.90556 59.6743C8.21375 60.3627 7.8334 61.2761 7.8334 62.2504C7.8334 63.2234 8.21375 64.1392 8.90556 64.8288C9.6161 65.5358 10.5518 65.8904 11.4863 65.8904C12.4208 65.8904 13.3565 65.5358 14.0681 64.8288L16.9977 61.9121L21.6842 57.2455C21.6854 57.2442 21.6854 57.2431 21.6865 57.2419L23.8951 55.0544L23.8869 55.0462C23.9008 55.0322 23.9207 55.0274 23.9347 55.0124L35.2353 42.635L42.8281 43.7154C42.8829 43.7236 42.9377 43.727 42.9925 43.727C43.1338 43.727 43.2702 43.6933 43.402 43.6431C43.4406 43.6292 43.4743 43.6104 43.5106 43.5918C43.5526 43.5708 43.5968 43.5591 43.6366 43.5323L50.6659 38.8657C50.6916 38.8482 50.7055 38.8201 50.73 38.8015C50.758 38.7794 50.793 38.7701 50.8186 38.7455L53.5999 36.1403C55.0471 34.7843 55.2466 32.563 54.0635 30.974ZM4.66024 38.8724C4.28111 39.0754 3.85058 39.1161 3.43878 38.9856C3.03039 38.8584 2.69912 38.5795 2.50538 38.2027C2.15305 37.5166 2.35718 36.6813 2.97433 36.2298L5.84793 34.8473L6.53974 36.8691L6.83027 37.7184L4.66024 38.8724ZM12.3102 34.8742L8.92333 36.6243L8.36456 34.9909L7.96328 33.8171L12.3967 31.6283L12.3102 34.8742ZM45.3402 20.3921C45.3402 22.401 44.8607 24.2959 44.03 25.9909L34.8832 21.8364C34.7875 20.5822 34.1366 19.4844 33.1589 18.8006L36.3614 8.16868C41.5626 9.82314 45.3402 14.6754 45.3402 20.3921ZM19.5519 20.3921C19.5519 13.3161 25.3363 7.55849 32.446 7.55849C32.9991 7.55849 33.5403 7.60511 34.0759 7.67279L30.9433 18.0715C30.9014 18.0703 30.8617 18.0587 30.8185 18.0587C28.5597 18.0587 26.7222 19.8903 26.7222 22.1421C26.7222 24.3938 28.5597 26.2255 30.8185 26.2255C32.3375 26.2255 33.65 25.3868 34.3582 24.1593L42.8073 27.9977C40.4564 31.1617 36.6938 33.2256 32.4459 33.2256C25.3363 33.2256 19.5519 27.4681 19.5519 20.3921ZM32.5814 22.1421C32.5814 23.1069 31.7903 23.8921 30.8185 23.8921C29.8467 23.8921 29.0556 23.1069 29.0556 22.1421C29.0556 21.1773 29.8467 20.3921 30.8185 20.3921C31.7903 20.3921 32.5814 21.1773 32.5814 22.1421ZM5.39183 55.0076C4.87503 55.5198 4.03843 55.5187 3.52286 55.0088C3.2743 54.7603 3.13785 54.4326 3.13785 54.0836C3.13785 53.736 3.2743 53.4081 3.52286 53.162L5.6274 51.0654L7.48941 52.9193L5.39183 55.0076ZM12.4222 63.1745C11.9054 63.6866 11.0677 63.6879 10.552 63.1757C10.3034 62.9272 10.1669 62.5994 10.1669 62.2505C10.1669 61.9028 10.3034 61.575 10.552 61.3289L12.6579 59.2312L13.5388 60.1074L14.5211 61.0851L12.4222 63.1745ZM20.0383 55.5863C20.0371 55.5874 20.036 55.5874 20.0348 55.5887L16.1742 59.4387L15.2933 58.5625L14.311 57.5848L18.168 53.7453C18.168 53.7453 18.168 53.7453 18.168 53.7442C18.1692 53.7429 18.1703 53.7429 18.1715 53.7418C18.259 53.6543 18.3139 53.5493 18.3676 53.4456C18.3828 53.4152 18.4119 53.3895 18.4248 53.3581C18.461 53.2682 18.4667 53.1714 18.4808 53.0768C18.4878 53.0231 18.5112 52.9731 18.5112 52.9181C18.5112 52.8399 18.4831 52.7642 18.4669 52.687C18.4529 52.617 18.4529 52.5458 18.426 52.4783C18.3817 52.3686 18.3058 52.2718 18.2265 52.1772C18.2044 52.1515 18.1962 52.1188 18.1717 52.0944C18.1717 52.0944 18.1717 52.0944 18.1705 52.0944C18.1692 52.0933 18.1692 52.0908 18.1681 52.0897L14.6529 48.5897C14.6156 48.5523 14.5677 48.5372 14.5257 48.5057C14.464 48.4579 14.4045 48.4136 14.3356 48.3797C14.2691 48.347 14.2014 48.3271 14.1314 48.3084C14.0568 48.2874 13.9845 48.2711 13.9063 48.2652C13.835 48.2606 13.7686 48.2675 13.6975 48.2757C13.6193 48.285 13.5459 48.2956 13.47 48.32C13.3964 48.3434 13.3312 48.3795 13.2635 48.4181C13.2203 48.4425 13.1714 48.4507 13.1305 48.4811L9.25133 51.3768L7.28077 49.4145L12.5285 44.1948L22.0674 53.5761L20.0383 55.5863ZM34.9544 40.2374C34.9207 40.2327 34.8891 40.2456 34.8553 40.2433C34.7701 40.2386 34.6885 40.2445 34.6034 40.2584C34.5369 40.2701 34.4739 40.2829 34.4108 40.3051C34.3362 40.3308 34.2685 40.3658 34.1996 40.4077C34.1343 40.4474 34.0748 40.4894 34.0176 40.5419C33.9896 40.5663 33.9558 40.5781 33.9301 40.606L23.6527 51.8622L14.185 42.5508L20.3825 36.3861C20.8387 35.9311 20.841 35.1925 20.386 34.7352C20.1562 34.5054 19.854 34.3922 19.5519 34.3934V34.3923L14.6984 34.4214L14.7591 30.9051L21.5492 30.9635C24.3166 33.7939 28.176 35.5591 32.446 35.5591C33.4027 35.5591 34.3361 35.4599 35.2448 35.2907C35.3323 35.3607 35.4186 35.4319 35.5284 35.4762L40.7995 37.5762L41.1331 39.2352L41.5228 41.1719L34.9544 40.2374ZM43.7944 40.627L43.1096 37.2191L46.2736 34.8566L47.102 35.9556L48.3445 37.6052L43.7944 40.627ZM52.0055 34.4343L50.1726 36.1516L48.1356 33.4473L49.9544 32.0531C50.2938 31.7919 50.7221 31.6856 51.1421 31.7405C51.5644 31.7999 51.9378 32.0205 52.1921 32.3623C52.6658 33.0005 52.5853 33.8907 52.0055 34.4343Z" fill="#212121"/>
<path d="M29.7545 40.5651L25.0668 35.8984C24.613 35.4447 23.8755 35.4447 23.4205 35.8984L18.734 40.5651C18.5147 40.7857 18.391 41.0819 18.391 41.3923C18.391 41.7026 18.5135 42.0002 18.734 42.2195L23.4205 46.8861C23.648 47.1124 23.9468 47.2256 24.2443 47.2256C24.5418 47.2256 24.8404 47.1124 25.0668 46.8861L29.7545 42.2195C29.9738 42.0002 30.0987 41.7026 30.0987 41.3923C30.0987 41.0819 29.9749 40.7844 29.7545 40.5651ZM24.2443 44.4129L21.2109 41.3923L24.2443 38.3717L27.2788 41.3923L24.2443 44.4129Z" fill="#212121"/>
<path d="M37.5468 11.0923L36.9833 13.358C37.1385 13.3966 40.7844 14.3462 40.7844 18.0586H43.1178C43.1177 13.6461 39.4742 11.5718 37.5468 11.0923Z" fill="#212121"/>
<path d="M43.1178 20.3921H40.7844V22.7255H43.1178V20.3921Z" fill="#212121"/>
</svg>
